<?xml version="1.0" encoding="UTF-8"?>
<svg xmlns="http://www.w3.org/2000/svg" xmlns:xlink="http://www.w3.org/1999/xlink" width="894.22pt" height="537.52pt" viewBox="0 0 894.22 537.52" version="1.1">
<defs>
<clipPath id="clip1">
  <path d="M 425 482 L 477 482 L 477 537.519531 L 425 537.519531 Z M 425 482 "/>
</clipPath>
<clipPath id="clip2">
  <path d="M 492 482 L 550 482 L 550 537.519531 L 492 537.519531 Z M 492 482 "/>
</clipPath>
<clipPath id="clip3">
  <path d="M 564 482 L 622 482 L 622 537.519531 L 564 537.519531 Z M 564 482 "/>
</clipPath>
<clipPath id="clip4">
  <path d="M 847 483 L 894.21875 483 L 894.21875 537 L 847 537 Z M 847 483 "/>
</clipPath>
</defs>
<g id="surface1">
<path style=" stroke:none;fill-rule:nonzero;fill:rgb(39.988708%,39.988708%,39.988708%);fill-opacity:1;" d="M 27.976563 497.1875 L 20.925781 514.398438 L 35.027344 514.398438 Z M 44.046875 536.609375 L 39.195313 524.707031 L 16.753906 524.707031 L 11.902344 536.609375 L 0 536.609375 L 22.746094 483.160156 L 33.511719 483.160156 L 56.253906 536.609375 "/>
<path style=" stroke:none;fill-rule:nonzero;fill:rgb(39.988708%,39.988708%,39.988708%);fill-opacity:1;" d="M 72.023438 536.609375 L 72.023438 483.542969 L 83.699219 483.542969 L 83.699219 526.074219 L 110.15625 526.074219 L 110.15625 536.609375 "/>
<path style=" stroke:none;fill-rule:nonzero;fill:rgb(39.988708%,39.988708%,39.988708%);fill-opacity:1;" d="M 126.53125 536.609375 L 126.53125 483.542969 L 166.488281 483.542969 L 166.488281 493.925781 L 138.054688 493.925781 L 138.054688 504.695313 L 163.074219 504.695313 L 163.074219 515.082031 L 138.054688 515.082031 L 138.054688 526.222656 L 166.867188 526.222656 L 166.867188 536.609375 "/>
<path style=" stroke:none;fill-rule:nonzero;fill:rgb(39.988708%,39.988708%,39.988708%);fill-opacity:1;" d="M 218.039063 536.609375 L 206.136719 518.414063 L 194.160156 536.609375 L 180.890625 536.609375 L 199.390625 509.621094 L 181.648438 483.542969 L 195.296875 483.542969 L 206.441406 500.75 L 217.660156 483.542969 L 230.929688 483.542969 L 213.1875 509.46875 L 231.6875 536.609375 "/>
<path style=" stroke:none;fill-rule:nonzero;fill:rgb(39.988708%,39.988708%,39.988708%);fill-opacity:1;" d="M 272.019531 494.308594 L 272.019531 536.609375 L 260.34375 536.609375 L 260.34375 494.308594 L 244.195313 494.308594 L 244.195313 483.539063 L 288.167969 483.539063 L 288.167969 494.308594 "/>
<path style=" stroke:none;fill-rule:nonzero;fill:rgb(39.988708%,39.988708%,39.988708%);fill-opacity:1;" d="M 337.902344 536.609375 L 337.902344 515.308594 L 316.371094 515.308594 L 316.371094 536.609375 L 304.695313 536.609375 L 304.695313 483.542969 L 316.371094 483.542969 L 316.371094 504.542969 L 337.902344 504.542969 L 337.902344 483.542969 L 349.578125 483.542969 L 349.578125 536.609375 "/>
<path style=" stroke:none;fill-rule:nonzero;fill:rgb(39.988708%,39.988708%,39.988708%);fill-opacity:1;" d="M 369.894531 536.609375 L 369.894531 483.542969 L 409.847656 483.542969 L 409.847656 493.925781 L 381.417969 493.925781 L 381.417969 504.695313 L 406.4375 504.695313 L 406.4375 515.082031 L 381.417969 515.082031 L 381.417969 526.222656 L 410.226563 526.222656 L 410.226563 536.609375 "/>
<g clip-path="url(#clip1)" clip-rule="nonzero">
<path style=" stroke:none;fill-rule:nonzero;fill:rgb(39.988708%,39.988708%,39.988708%);fill-opacity:1;" d="M 466.746094 535.058594 C 462.980469 536.699219 458.671875 537.519531 453.820313 537.519531 C 449.675781 537.519531 445.898438 536.839844 442.488281 535.472656 C 439.074219 534.109375 436.144531 532.214844 433.691406 529.785156 C 431.238281 527.363281 429.332031 524.480469 427.96875 521.144531 C 426.601563 517.808594 425.921875 514.171875 425.921875 510.226563 L 425.921875 510.078125 C 425.921875 506.285156 426.613281 502.734375 428.007813 499.425781 C 429.394531 496.113281 431.328125 493.207031 433.804688 490.703125 C 436.28125 488.203125 439.214844 486.234375 442.601563 484.789063 C 445.984375 483.351563 449.699219 482.632813 453.746094 482.632813 C 456.121094 482.632813 458.28125 482.796875 460.226563 483.121094 C 462.171875 483.453125 463.980469 483.921875 465.648438 484.527344 C 467.316406 485.132813 468.882813 485.890625 470.347656 486.800781 C 471.8125 487.710938 473.230469 488.746094 474.59375 489.910156 L 467.238281 498.78125 C 466.226563 497.921875 465.21875 497.160156 464.207031 496.503906 C 463.195313 495.847656 462.148438 495.292969 461.0625 494.839844 C 459.972656 494.382813 458.796875 494.03125 457.535156 493.777344 C 456.269531 493.523438 454.882813 493.398438 453.367188 493.398438 C 451.242188 493.398438 449.257813 493.839844 447.414063 494.726563 C 445.570313 495.613281 443.953125 496.804688 442.5625 498.296875 C 441.171875 499.792969 440.085938 501.539063 439.304688 503.539063 C 438.519531 505.542969 438.128906 507.683594 438.128906 509.960938 L 438.128906 510.113281 C 438.128906 512.546875 438.519531 514.785156 439.304688 516.839844 C 440.085938 518.890625 441.199219 520.675781 442.636719 522.195313 C 444.078125 523.714844 445.769531 524.894531 447.71875 525.730469 C 449.664063 526.566406 451.824219 526.984375 454.199219 526.984375 C 458.546875 526.984375 462.210938 525.914063 465.191406 523.777344 L 465.191406 516.140625 L 453.441406 516.140625 L 453.441406 506.058594 L 476.488281 506.058594 L 476.488281 529.105469 C 473.761719 531.429688 470.511719 533.414063 466.746094 535.058594 "/>
</g>
<g clip-path="url(#clip2)" clip-rule="nonzero">
<path style=" stroke:none;fill-rule:nonzero;fill:rgb(39.988708%,39.988708%,39.988708%);fill-opacity:1;" d="M 537.140625 510.078125 C 537.140625 507.800781 536.746094 505.652344 535.964844 503.632813 C 535.179688 501.609375 534.070313 499.839844 532.628906 498.324219 C 531.1875 496.808594 529.480469 495.609375 527.511719 494.722656 C 525.539063 493.839844 523.390625 493.398438 521.066406 493.398438 C 518.691406 493.398438 516.53125 493.828125 514.585938 494.683594 C 512.640625 495.546875 510.972656 496.734375 509.582031 498.25 C 508.191406 499.765625 507.105469 501.523438 506.320313 503.515625 C 505.535156 505.515625 505.144531 507.648438 505.144531 509.925781 L 505.144531 510.078125 C 505.144531 512.347656 505.535156 514.5 506.320313 516.519531 C 507.105469 518.542969 508.214844 520.308594 509.65625 521.828125 C 511.097656 523.34375 512.789063 524.542969 514.734375 525.429688 C 516.679688 526.3125 518.84375 526.753906 521.21875 526.753906 C 523.542969 526.753906 525.691406 526.328125 527.664063 525.46875 C 529.632813 524.609375 531.3125 523.417969 532.703125 521.902344 C 534.09375 520.386719 535.179688 518.632813 535.964844 516.632813 C 536.746094 514.636719 537.140625 512.503906 537.140625 510.226563 Z M 547.222656 520.726563 C 545.808594 524.039063 543.847656 526.945313 541.347656 529.445313 C 538.84375 531.949219 535.863281 533.921875 532.402344 535.359375 C 528.9375 536.800781 525.160156 537.519531 521.066406 537.519531 C 516.972656 537.519531 513.207031 536.800781 509.769531 535.359375 C 506.332031 533.921875 503.363281 531.972656 500.863281 529.523438 C 498.359375 527.070313 496.414063 524.191406 495.023438 520.878906 C 493.632813 517.570313 492.9375 514.015625 492.9375 510.226563 L 492.9375 510.078125 C 492.9375 506.285156 493.648438 502.734375 495.0625 499.425781 C 496.476563 496.113281 498.4375 493.207031 500.9375 490.707031 C 503.441406 488.203125 506.421875 486.234375 509.882813 484.792969 C 513.347656 483.351563 517.125 482.632813 521.21875 482.632813 C 525.3125 482.632813 529.074219 483.351563 532.515625 484.792969 C 535.953125 486.234375 538.921875 488.179688 541.421875 490.628906 C 543.925781 493.082031 545.871094 495.960938 547.261719 499.273438 C 548.648438 502.582031 549.347656 506.132813 549.347656 509.925781 L 549.347656 510.078125 C 549.347656 513.867188 548.636719 517.417969 547.222656 520.726563 "/>
</g>
<g clip-path="url(#clip3)" clip-rule="nonzero">
<path style=" stroke:none;fill-rule:nonzero;fill:rgb(39.988708%,39.988708%,39.988708%);fill-opacity:1;" d="M 609.164063 510.078125 C 609.164063 507.800781 608.769531 505.652344 607.988281 503.632813 C 607.203125 501.609375 606.09375 499.839844 604.652344 498.324219 C 603.210938 496.808594 601.503906 495.609375 599.535156 494.722656 C 597.5625 493.839844 595.414063 493.398438 593.089844 493.398438 C 590.714844 493.398438 588.550781 493.828125 586.605469 494.683594 C 584.660156 495.546875 582.992188 496.734375 581.605469 498.25 C 580.214844 499.765625 579.125 501.523438 578.34375 503.515625 C 577.558594 505.515625 577.167969 507.648438 577.167969 509.925781 L 577.167969 510.078125 C 577.167969 512.347656 577.558594 514.5 578.34375 516.519531 C 579.125 518.542969 580.238281 520.308594 581.679688 521.828125 C 583.121094 523.34375 584.8125 524.542969 586.757813 525.429688 C 588.703125 526.3125 590.863281 526.753906 593.242188 526.753906 C 595.566406 526.753906 597.714844 526.328125 599.683594 525.46875 C 601.65625 524.609375 603.335938 523.417969 604.726563 521.902344 C 606.117188 520.386719 607.203125 518.632813 607.988281 516.632813 C 608.769531 514.636719 609.164063 512.503906 609.164063 510.226563 Z M 619.246094 520.726563 C 617.828125 524.039063 615.871094 526.945313 613.371094 529.445313 C 610.867188 531.949219 607.886719 533.921875 604.425781 535.359375 C 600.960938 536.800781 597.183594 537.519531 593.089844 537.519531 C 588.996094 537.519531 585.230469 536.800781 581.792969 535.359375 C 578.355469 533.921875 575.386719 531.972656 572.886719 529.523438 C 570.382813 527.070313 568.4375 524.191406 567.046875 520.878906 C 565.65625 517.570313 564.964844 514.015625 564.964844 510.226563 L 564.964844 510.078125 C 564.964844 506.285156 565.667969 502.734375 567.085938 499.425781 C 568.5 496.113281 570.460938 493.207031 572.960938 490.707031 C 575.464844 488.203125 578.445313 486.234375 581.90625 484.792969 C 585.367188 483.351563 589.148438 482.632813 593.242188 482.632813 C 597.335938 482.632813 601.097656 483.351563 604.539063 484.792969 C 607.972656 486.234375 610.945313 488.179688 613.445313 490.628906 C 615.945313 493.082031 617.890625 495.960938 619.28125 499.273438 C 620.671875 502.582031 621.367188 506.132813 621.367188 509.925781 L 621.367188 510.078125 C 621.367188 513.867188 620.660156 517.417969 619.246094 520.726563 "/>
</g>
<path style=" stroke:none;fill-rule:nonzero;fill:rgb(39.988708%,39.988708%,39.988708%);fill-opacity:1;" d="M 676.03125 510.078125 C 676.03125 507.75 675.636719 505.601563 674.855469 503.632813 C 674.070313 501.660156 672.984375 499.96875 671.59375 498.550781 C 670.203125 497.136719 668.523438 496.039063 666.550781 495.253906 C 664.582031 494.472656 662.40625 494.078125 660.03125 494.078125 L 651.011719 494.078125 L 651.011719 526.074219 L 660.03125 526.074219 C 662.40625 526.074219 664.582031 525.695313 666.550781 524.933594 C 668.523438 524.175781 670.203125 523.089844 671.59375 521.675781 C 672.984375 520.261719 674.070313 518.59375 674.855469 516.671875 C 675.636719 514.75 676.03125 512.605469 676.03125 510.226563 Z M 686.1875 520.539063 C 684.824219 523.773438 682.890625 526.578125 680.390625 528.953125 C 677.886719 531.328125 674.90625 533.199219 671.441406 534.5625 C 667.980469 535.929688 664.175781 536.609375 660.03125 536.609375 L 639.335938 536.609375 L 639.335938 483.542969 L 660.03125 483.542969 C 664.175781 483.542969 667.980469 484.210938 671.441406 485.550781 C 674.90625 486.890625 677.886719 488.746094 680.390625 491.121094 C 682.890625 493.5 684.824219 496.292969 686.1875 499.5 C 687.554688 502.710938 688.234375 506.183594 688.234375 509.925781 L 688.234375 510.078125 C 688.234375 513.816406 687.554688 517.304688 686.1875 520.539063 "/>
<path style=" stroke:none;fill-rule:nonzero;fill:rgb(39.988708%,39.988708%,39.988708%);fill-opacity:1;" d="M 747.75 536.609375 L 747.75 501.964844 L 732.8125 524.632813 L 732.511719 524.632813 L 717.726563 502.191406 L 717.726563 536.609375 L 706.203125 536.609375 L 706.203125 483.542969 L 718.789063 483.542969 L 732.738281 505.980469 L 746.6875 483.542969 L 759.273438 483.542969 L 759.273438 536.609375 "/>
<path style=" stroke:none;fill-rule:nonzero;fill:rgb(39.988708%,39.988708%,39.988708%);fill-opacity:1;" d="M 803.019531 497.1875 L 795.96875 514.398438 L 810.070313 514.398438 Z M 819.089844 536.609375 L 814.238281 524.707031 L 791.796875 524.707031 L 786.945313 536.609375 L 775.042969 536.609375 L 797.785156 483.160156 L 808.550781 483.160156 L 831.296875 536.609375 "/>
<g clip-path="url(#clip4)" clip-rule="nonzero">
<path style=" stroke:none;fill-rule:nonzero;fill:rgb(39.988708%,39.988708%,39.988708%);fill-opacity:1;" d="M 884.289063 536.609375 L 858.589844 502.875 L 858.589844 536.609375 L 847.066406 536.609375 L 847.066406 483.542969 L 857.832031 483.542969 L 882.699219 516.214844 L 882.699219 483.542969 L 894.222656 483.542969 L 894.222656 536.609375 "/>
</g>
<path style=" stroke:none;fill-rule:nonzero;fill:rgb(96.875%,57.226563%,11.767578%);fill-opacity:1;" d="M 314.679688 439.257813 L 450.507813 132.5625 L 549.027344 280.339844 L 530.191406 404.941406 L 467.890625 340.738281 "/>
<path style=" stroke:none;fill-rule:nonzero;fill:rgb(98.046875%,68.554688%,22.75238%);fill-opacity:1;" d="M 530.191406 404.941406 L 549.027344 280.339844 L 450.507813 132.5625 L 426.640625 99.964844 L 575.828125 139.808594 L 649.71875 270.199219 L 617.5625 249.574219 L 587.1875 384.671875 L 515.703125 459.996094 "/>
<path style=" stroke:none;fill-rule:nonzero;fill:rgb(96.875%,57.226563%,11.767578%);fill-opacity:1;" d="M 408.492188 95.117188 L 604.988281 147.59375 L 498.5 39.65625 L 426.640625 39.65625 L 392.011719 70.082031 "/>
<path style=" stroke:none;fill-rule:nonzero;fill:rgb(98.046875%,68.554688%,22.75238%);fill-opacity:1;" d="M 516.429688 39.65625 L 426.640625 39.65625 L 392.011719 70.082031 L 361.042969 39.65625 L 438.734375 -0.00390625 "/>
<path style=" stroke:none;fill-rule:nonzero;fill:rgb(96.875%,57.226563%,11.767578%);fill-opacity:1;" d="M 431.804688 3.535156 L 367.019531 3.535156 L 324.640625 39.65625 L 361.042969 39.65625 Z M 431.804688 3.535156 "/>
<path style=" stroke:none;fill-rule:nonzero;fill:rgb(96.875%,57.226563%,11.767578%);fill-opacity:1;" d="M 371.546875 87.648438 L 361.042969 95.253906 L 355.972656 95.253906 L 314.679688 121.695313 L 326.996094 87.648438 "/>
<path style=" stroke:none;fill-rule:nonzero;fill:rgb(96.875%,57.226563%,11.767578%);fill-opacity:1;" d="M 286.339844 91.269531 L 268.953125 115.449219 L 261.074219 91.269531 "/>
<path style=" stroke:none;fill-rule:nonzero;fill:rgb(98.046875%,68.554688%,22.75238%);fill-opacity:1;" d="M 286.339844 139.625 L 261.074219 162.445313 L 244.503906 151.035156 L 244.503906 139.625 Z M 286.339844 139.625 "/>
<path style=" stroke:none;fill-rule:nonzero;fill:rgb(98.046875%,68.554688%,22.75238%);fill-opacity:1;" d="M 270.128906 151.035156 L 270.128906 177.113281 L 314.679688 201.019531 L 337.863281 193.410156 L 321.5625 218.765625 L 265.421875 191.078125 L 244.503906 197.394531 L 257.089844 181.460938 L 257.089844 152.847656 "/>
<path style=" stroke:none;fill-rule:nonzero;fill:rgb(96.875%,57.226563%,11.767578%);fill-opacity:1;" d="M 292.902344 231.441406 L 273.707031 257.523438 L 265.421875 236.25 "/>
</g>
</svg>
